<svg xmlns="http://www.w3.org/2000/svg" viewBox="0 0 375.9 213.19"><defs><style>.cls-1{fill:#eaa81d;}.cls-2{fill:#a92d23;}.cls-3{fill:#d88439;}.cls-4{font-size:40.24px;font-family:DepotNew-Thin, Depot New;font-weight:200;}</style></defs><g id="Layer_2" data-name="Layer 2"><g id="BOARD"><path class="cls-1" d="M0,10.65l19,.55.25,8.6c6-9.55,18.5-14,29.59-11.86S69.36,18.13,74.71,28.07s6.92,21.61,6.05,32.87c-1,12.44-5.2,25.29-14.72,33.36a33.24,33.24,0,0,1-45.13-2c-.1.28-.11,42.15-.11,42.15L0,134.29ZM21.23,35.33S21.1,75,20.92,75.66c4.83,3,9.79,6.15,15.36,7.42s12,.37,16-3.71c3.06-3.11,4.29-7.56,5.18-11.83a59.93,59.93,0,0,0,1.37-18.67c-.7-6.22-3-12.41-7.21-17S41,24.4,34.79,25.18,22.84,30.76,20.54,36.73C20.63,36.73,20.72,36.73,21.23,35.33Z"/><path class="cls-2" d="M22.92,59.23,41,59.06s1,7.42,1.56,8.15A34.51,34.51,0,0,1,98.34,78.57c3.38,8,3.63,17,3.45,25.64-.28,13.86-2.12,29-12.4,39a34.94,34.94,0,0,1-43.86.44l-2.43-3.38,1-.59-.48,43H22.23Zm20.7,25s-.25,39.23-1,39.84a20.27,20.27,0,0,0,34.46,1.41c2.59-3.82,3.79-8.4,4.55-13C82.93,104.59,83,96.26,80,88.82S70.62,75,62.73,73.69,45.91,77.14,43.62,84.18Z"/><path class="cls-1" d="M148.05,64.93s9.88,10,9.84,10.15c-4.09,4.34-8.42,8.58-13.62,11.51s-11.41,4.46-17.4,2.83A43.63,43.63,0,0,1,97.73,77.36,40.22,40.22,0,0,1,85.59,48.41a67.38,67.38,0,0,1,2.68-16c1.25-4.74,2.64-9.5,5.08-13.75A29.84,29.84,0,0,1,114,4.15a34.38,34.38,0,0,1,30.4,4.58c6.88,4.1,11.27,11.51,13.41,19.22s2.28,15.83,2.41,23.83c0,0-54.11-.29-54.21-.34-.07,7.93,4.67,15.72,11.73,20l7.93,1.77c3.31.74,6.74,1.48,10.06.82C140.62,73,144.39,69.18,148.05,64.93ZM140,30.25a18,18,0,0,0-1.7-6.14,12.11,12.11,0,0,0-5.21-4.7,18.41,18.41,0,0,0-26.73,17.91c-.29,0,34.14.13,34.14.13A28.69,28.69,0,0,0,140,30.25Z"/><path class="cls-1" d="M232.93,62.43s9.87,10,9.83,10.15c-4.09,4.35-8.42,8.58-13.61,11.51s-11.41,4.46-17.41,2.84a43.65,43.65,0,0,1-29.13-12.06,40.2,40.2,0,0,1-12.15-28.95,66.81,66.81,0,0,1,2.69-16c1.24-4.74,2.63-9.5,5.07-13.75A29.88,29.88,0,0,1,198.84,1.65a34.43,34.43,0,0,1,30.4,4.59c6.88,4.1,11.27,11.51,13.41,19.22s2.27,15.82,2.4,23.83c0,0-54.1-.29-54.21-.34-.06,7.93,4.67,15.71,11.74,20l7.93,1.77c3.31.74,6.73,1.48,10.06.81C225.49,70.54,229.27,66.69,232.93,62.43Zm-8.06-34.67a17.92,17.92,0,0,0-1.69-6.14,12.16,12.16,0,0,0-5.21-4.7,18.41,18.41,0,0,0-26.74,17.91c-.29,0,34.14.12,34.14.12A28.18,28.18,0,0,0,224.87,27.76Z"/><path class="cls-2" d="M178.77,130.14c-4.08,7.7-12.11,12.74-20.64,14.58s-17.5.72-25.8-2a40.55,40.55,0,0,1-14-7.36A34.12,34.12,0,0,1,108,118.11a55.73,55.73,0,0,1-1.1-20.31c.77-6.94,2.47-13.87,5.9-20,6.56-11.64,19.71-19.34,33.07-19s26.27,8.79,31.55,21.06c3.88,9,3.7,19.23,2.72,29-.24-.07-53.89-.34-53.89-.34a20.5,20.5,0,0,0,7.69,16.83A23.48,23.48,0,0,0,152,130a27.58,27.58,0,0,0,16.38-9.29c.14-.13,10.38,9.42,10.38,9.42C178.61,130,178.69,130.06,178.77,130.14ZM159.12,83c-1.59-3.59-3.67-7.13-6.92-9.31-5.64-3.79-13.76-2.37-18.77,2.22s-7.17,11.67-7.1,18.47c-.39,0,35.1.14,35.1.14C162,90.6,160.74,86.67,159.12,83Z"/><path class="cls-2" d="M265.69,105.94s-54.05.35-53.92.19A22.13,22.13,0,0,0,220,123a23.47,23.47,0,0,0,18.26,4.71A27.34,27.34,0,0,0,254.56,118l-.14-.13s9.89,9.72,9.58,9.77a31.42,31.42,0,0,1-18,14.21,43.55,43.55,0,0,1-23.16.5c-10.21-2.41-20-8.16-25.43-17.11-5.32-8.71-6.12-19.51-4.92-29.64.86-7.28,2.72-14.55,6.49-20.84a38,38,0,0,1,19.42-16.06,36.84,36.84,0,0,1,30.21,2.24,34.36,34.36,0,0,1,17.13,24.8C266.71,92.48,265.5,99.4,265.69,105.94ZM242.23,76.75a18.13,18.13,0,0,0-12.6-6.44,15.93,15.93,0,0,0-12.95,5.42c-3.59,4.27-4.47,10.12-5.21,15.65.59.61,35.34.45,35.34.45A20.47,20.47,0,0,0,242.23,76.75Z"/><path class="cls-1" d="M256.94,3.2l.24,82.14,19.75.73s-1-56-1.94-55.9a21.2,21.2,0,0,1,26.06-8.71.54.54,0,0,0,.06-1c-.41-.15-.85.44-.45.67v.12s.11-17.52-.09-17.62C296.4.8,290.66,1,286.09,3.15s-8.15,6-11.1,10.11l.86.12L275.45,3Z"/><path class="cls-2" d="M271.34,61.76l18.46.16s.63,8.59.36,8.85A23,23,0,0,1,316,60.91s-.32,17.88-.59,18.32a23.53,23.53,0,0,0-22.18,4.9c-1.2,1.09-2.36,2.46-2.23,4.12,0,0,0-.12.09-.08l-.26,56.34-19.09.09Z"/><path class="cls-3" d="M313.15,3.63h9.75L323,14.16l7.79.06.17,7.39s-7.84.28-8,.45c0,1.76,0,3.51.17,5.33a156.63,156.63,0,0,0-.45,17.19c.07,1.69.27,3.52,1.44,4.73a5,5,0,0,0,3.39,1.35,14.52,14.52,0,0,0,3.7-.49s0,7.59.16,7.81a21,21,0,0,1-9.18.69,10.94,10.94,0,0,1-7.56-4.89c-1.5-2.54-1.6-5.64-1.64-8.59q-.15-11.77.22-23.54l-7.33.08.06-7,.11-.23,7.06-.45Z"/><path class="cls-3" d="M372.48,22.39c4.27,6.66,4,16.62,2.17,23.45-2,7.64-11,12.59-18.92,13.11-6.16.41-12.67-2-16.31-7-2.85-3.91-3.7-9-3.61-13.81.12-5.82.34-11.75,3.79-16.43a20.17,20.17,0,0,1,16.1-7.63C361.3,13,368.21,15.73,372.48,22.39ZM352,22.19a8.51,8.51,0,0,0-4.36,4.47A24,24,0,0,0,346,32.82a34.58,34.58,0,0,0-.65,7.31,12.56,12.56,0,0,0,2.2,6.9,9.55,9.55,0,0,0,14.81.75,15.25,15.25,0,0,0,3-6,22.41,22.41,0,0,0,.83-10.43,12.77,12.77,0,0,0-5.58-8.6A10.37,10.37,0,0,0,352,22.19Z"/><text class="cls-4" transform="translate(168.3 185.11)">Odense</text></g></g></svg>