<svg xmlns="http://www.w3.org/2000/svg" viewBox="0 0 406.57 224.09"><defs><style>.cls-1{fill:#662020;}.cls-2{fill:#d88439;}.cls-3,.cls-5,.cls-6{fill:#a92d23;}.cls-4{fill:#eaa81d;}.cls-5{font-size:93.53px;}.cls-5,.cls-6{font-family:Abel-Regular, Abel;}.cls-6{font-size:135.35px;}</style></defs><g id="Layer_2" data-name="Layer 2"><g id="BOARD"><path class="cls-1" d="M89,22.51a24.54,24.54,0,0,1,44.76,18c-2,9.82-9.61,17.37-16.86,24.27-9.29,8.83-18.57,17.65-28.23,26.89L61.05,66.38c-7.38-6.77-15.11-14.13-17.49-23.85A25.52,25.52,0,0,1,69.37,11,23.83,23.83,0,0,1,89,22.51Z"/><path class="cls-2" d="M88.41,177.07a24.54,24.54,0,0,1-44.75-18c2-9.82,9.6-17.37,16.86-24.27,9.28-8.82,18.56-17.65,28.22-26.89l27.58,25.31c7.38,6.77,15.11,14.13,17.49,23.85A25.52,25.52,0,0,1,108,188.6,23.83,23.83,0,0,1,88.41,177.07Z"/><path class="cls-3" d="M11.55,99.33a24.53,24.53,0,0,1-3.1-39,24.94,24.94,0,0,1,21.13-5.71c9.81,2,17.36,9.61,24.26,16.86C62.67,80.72,71.49,90,80.73,99.66L55.42,127.24c-6.77,7.38-14.12,15.11-23.85,17.49a25.93,25.93,0,0,1-22.21-5A25.92,25.92,0,0,1,0,118.92,23.83,23.83,0,0,1,11.55,99.33Z"/><path class="cls-4" d="M166.16,100.22a24.54,24.54,0,0,1-18,44.75c-9.82-2-17.37-9.6-24.27-16.86C115,118.82,106.21,109.54,97,99.88L122.28,72.3c6.77-7.37,14.13-15.11,23.86-17.49a25.52,25.52,0,0,1,31.55,25.81A23.91,23.91,0,0,1,166.16,100.22Z"/><text class="cls-5" transform="translate(197.47 79.51)">åbent</text><text class="cls-6" transform="translate(191.72 184.17)">sind</text></g></g></svg>