<svg xmlns="http://www.w3.org/2000/svg" viewBox="0 0 38.71 38.71"><defs><style>.cls-1{fill:#d88439;fill-rule:evenodd;}</style></defs><g id="Layer_2" data-name="Layer 2"><g id="BOARD"><path class="cls-1" d="M18.87,0c-4.82,0-5.5,0-7.5.12A14,14,0,0,0,6.68,1,9.27,9.27,0,0,0,3.25,3.25,9.27,9.27,0,0,0,1,6.68a14,14,0,0,0-.9,4.69C0,13.44,0,14.1,0,19.35s0,5.92.12,8A14.07,14.07,0,0,0,1,32a9.43,9.43,0,0,0,2.23,3.43,9.52,9.52,0,0,0,3.43,2.23,14.26,14.26,0,0,0,4.69.9c2.07.09,2.73.12,8,.12s5.92,0,8-.12a14.33,14.33,0,0,0,4.7-.9A9.86,9.86,0,0,0,37.69,32a14.33,14.33,0,0,0,.9-4.7c.09-2,.11-2.68.12-7.5v-1c0-4.82,0-5.5-.12-7.5a14.26,14.26,0,0,0-.9-4.69,9.52,9.52,0,0,0-2.23-3.43A9.43,9.43,0,0,0,32,1a14.07,14.07,0,0,0-4.7-.9C25.33,0,24.65,0,19.83,0ZM32,9A2.33,2.33,0,1,1,29.68,6.7,2.32,2.32,0,0,1,32,9ZM19.35,25.8a6.45,6.45,0,1,1,6.45-6.45,6.45,6.45,0,0,1-6.45,6.45Zm0-16.39a9.94,9.94,0,1,1-9.93,9.94,9.94,9.94,0,0,1,9.93-9.94Zm0-5.92c5.17,0,5.78,0,7.82.11a10.73,10.73,0,0,1,3.6.67A6.09,6.09,0,0,1,33,5.71a6,6,0,0,1,1.45,2.23,10.92,10.92,0,0,1,.67,3.59c.09,2,.11,2.66.11,7.82s0,5.78-.11,7.82a11,11,0,0,1-.67,3.6,6.46,6.46,0,0,1-3.67,3.67,11,11,0,0,1-3.6.67c-2,.09-2.65.11-7.82.11s-5.78,0-7.82-.11a10.92,10.92,0,0,1-3.59-.67A6,6,0,0,1,5.71,33a6.09,6.09,0,0,1-1.44-2.22,10.73,10.73,0,0,1-.67-3.6c-.09-2-.11-2.65-.11-7.82s0-5.78.11-7.82a10.66,10.66,0,0,1,.67-3.59A6.31,6.31,0,0,1,7.94,4.27a10.66,10.66,0,0,1,3.59-.67C13.57,3.51,14.19,3.49,19.35,3.49Z"/></g></g></svg>