<svg xmlns="http://www.w3.org/2000/svg" viewBox="0 0 71.28 70.36"><defs><style>.cls-1{fill:#92bf43;}</style></defs><g id="Layer_2" data-name="Layer 2"><g id="BOARD"><path class="cls-1" d="M59.56,9.21A38.39,38.39,0,0,1,71.26,38.1a34.23,34.23,0,0,1-5.74,18.24A33.35,33.35,0,0,1,44.75,69.62,42.72,42.72,0,0,1,20,66.82a34.61,34.61,0,0,1-9.32-5.55C5.05,56.42,1.63,49.3.47,42a37.67,37.67,0,0,1,6.3-27.53A34.49,34.49,0,0,1,31,.19C40.65-.77,51.77,1.87,59.56,9.21ZM27.7,5.68A31.36,31.36,0,0,0,4.74,40,32,32,0,0,0,25.19,65a32,32,0,0,0,31.66-6.32,31.94,31.94,0,0,0,6.77-8.81C69.26,39,68,24.93,60.26,15.5S39,2.65,27.7,5.68Z"/><path class="cls-1" d="M32.94,40.57,47.38,22.51a8.49,8.49,0,0,1,3.33-2.92,4.26,4.26,0,0,1,5.75,4.57,8.6,8.6,0,0,1-2.15,3.94l-21,26.21C31.9,56,30.18,57.9,28,57.78c-2.35-.13-3.86-2.46-5-4.52l-6.5-12c-1-1.84-2-4-1.22-5.94a5.2,5.2,0,0,1,3.25-2.66c1.6-.54,3.71-.44,4.56,1.05a4.4,4.4,0,0,1,.42,1.18l2.36,4a6.36,6.36,0,0,0,2.31,2.63A4.1,4.1,0,0,0,32.94,40.57Z"/></g></g></svg>