<svg xmlns="http://www.w3.org/2000/svg" viewBox="0 0 72.05 71.3"><defs><style>.cls-1{fill:#f24b2e;}</style></defs><g id="Layer_2" data-name="Layer 2"><g id="BOARD"><path class="cls-1" d="M60.23,9C70.48,18.12,74.74,33.52,70.31,46.5A37.16,37.16,0,0,1,52.93,66.73,36,36,0,0,1,26,70a32.21,32.21,0,0,1-9.51-4.6,36.22,36.22,0,0,1-16.4-33A36.2,36.2,0,0,1,21.93,2.68C34.44-2.47,50-.1,60.23,9ZM35.17,4.55A31.75,31.75,0,0,0,9.55,18.74,31.78,31.78,0,0,0,7,47.92,30.75,30.75,0,0,0,30,66.06,31.83,31.83,0,0,0,61.29,54.12a31.85,31.85,0,0,0,2.35-33.39C58,10.38,46.12,4.36,35.17,4.55Z"/><path class="cls-1" d="M36,29.69l8.67-9a12.84,12.84,0,0,1,4.14-3.24,4.41,4.41,0,0,1,4.9.78,4.38,4.38,0,0,1,.41,4.63,12.89,12.89,0,0,1-3.06,3.81c-3,2.94-6.08,5.88-9.13,8.89L52.2,45.94a8.43,8.43,0,0,1,2.09,2.82,4.12,4.12,0,0,1-4.12,5.52c-2.4-.15-4.13-2.27-5.64-4.14a61.2,61.2,0,0,0-8.65-8.77L26.64,51.1a8.92,8.92,0,0,1-3.79,2.79,4.4,4.4,0,0,1-3.6-.56,4.18,4.18,0,0,1-1.79-3.15c-.11-2.27,1.68-4.13,3.33-5.69,3.05-2.87,6.09-5.73,9.29-8.68-3.23-3.26-6.46-6.52-9.58-9.89A12.19,12.19,0,0,1,18,22.42a4.38,4.38,0,0,1,.22-4.15c1.24-1.75,3.95-1.82,5.83-.79s3.16,2.87,4.49,4.55A49.62,49.62,0,0,0,36,29.69Z"/></g></g></svg>