<svg xmlns="http://www.w3.org/2000/svg" viewBox="0 0 39.34 39.89"><defs><style>.cls-1{fill:#a92d23;}</style></defs><g id="Layer_2" data-name="Layer 2"><g id="BOARD"><path class="cls-1" d="M19.61,14.1c3.21-3.17,6.68-7,9.89-10.15a13.33,13.33,0,0,1,3.88-3A4.57,4.57,0,0,1,38,1.35,4.58,4.58,0,0,1,39,6.45a13.47,13.47,0,0,1-3.3,4.38c-3.11,3.11-6.21,6.22-9.11,9.51,3.11,3.74,6.4,7.1,9.51,10.22,1.06,1.05,2.36,1.94,2.91,3.33a4.23,4.23,0,0,1-4.09,5.78c-2.15-.09-3.87-1.74-5.37-3.3-3.23-3.35-6.46-6.7-9.7-10.11l-9.3,10C8.87,38,7,39.86,4.54,39.89a4.48,4.48,0,0,1-4.4-5.6,9.06,9.06,0,0,1,2.92-4c3.48-3.28,7-6.56,10.61-9.9l-9.19-9.2C2.88,9.56,1.23,7.86.64,5.68S1,.73,3.16.12A4.39,4.39,0,0,1,6.53.74,12.67,12.67,0,0,1,9.17,3.06l9.36,9.88C18.78,13.21,20,14.22,19.61,14.1Z"/></g></g></svg>