<svg xmlns="http://www.w3.org/2000/svg" viewBox="0 0 38.71 26.64"><defs><style>.cls-1{fill:#732222;fill-rule:evenodd;}</style></defs><g id="Layer_2" data-name="Layer 2"><g id="BOARD"><path class="cls-1" d="M3.18,4.27A.77.77,0,0,1,4,3.44c.32,0,12.86,7.94,13.62,8.41l2,1.22c.63-.42,1.25-.77,1.9-1.21,1.31-.84,13-8.42,13.35-8.42a.77.77,0,0,1,.84.83c0,.57-1.09,1.13-1.8,1.56C29.45,8.54,25,11.5,20.59,14.31c-.26.17-.75.54-1.12.49S6.29,6.53,4,5.17c-.34-.21-.78-.39-.78-.9ZM0,2.35V24.46a2.1,2.1,0,0,0,2.09,2.18H36.61a2.12,2.12,0,0,0,2.1-2.18V2.35A2.13,2.13,0,0,0,36.61,0H2.09A2.11,2.11,0,0,0,0,2.35Z"/></g></g></svg>