<svg xmlns="http://www.w3.org/2000/svg" viewBox="0 0 52.75 43.25"><defs><style>.cls-1{fill:#d88439;}</style></defs><g id="Layer_2" data-name="Layer 2"><g id="BOARD"><path class="cls-1" d="M14.52,17.72,25,7.19A4.21,4.21,0,0,0,26.54,4.7c.09-1.24-.9-2.26-1.81-3.1S22.83-.07,21.64,0a4.57,4.57,0,0,0-2.7,1.63L7.16,13.41,1.87,18.69a5.7,5.7,0,0,0-1.7,2.39c-.54,2.08.29,2.66,1.26,3.42C6.92,30,12.82,35.78,18.31,41.26c1,1,2.11,2,3.49,2A4.6,4.6,0,0,0,25,41.36a4.19,4.19,0,0,0,1.37-3.16,4.7,4.7,0,0,0-1.64-2.53c-3.29-3.23-6.59-6.46-9.88-9.76l32.61-.08c1.68,0,3.61-.12,4.63-1.45a4.62,4.62,0,0,0,.7-3.12,4,4,0,0,0-1.06-2.79,4.71,4.71,0,0,0-3.23-.8C37.17,17.67,25.89,17.68,14.52,17.72Z"/></g></g></svg>