<svg xmlns="http://www.w3.org/2000/svg" viewBox="0 0 37.98 38.7"><defs><style>.cls-1{fill:#eaa81d;fill-rule:evenodd;}</style></defs><g id="Layer_2" data-name="Layer 2"><g id="BOARD"><path class="cls-1" d="M6.07.57A8.74,8.74,0,0,0,2.5,2.19C-1.58,5.73.13,9.28,2,13.39A47.24,47.24,0,0,0,12.33,27.7a37,37,0,0,0,3.5,3.08,53.36,53.36,0,0,0,9.57,6A25.55,25.55,0,0,0,29,38.41a4.83,4.83,0,0,0,4.17-.4c2-1,4.35-3.31,4.75-5.6.31-1.85-.86-2.78-1.68-3.46L34.78,27.8a41.51,41.51,0,0,0-4.66-3.18c-4-1.94-5,2.06-6.57,2.79-2.1,1-6.11-2-7.2-2.86a17.23,17.23,0,0,1-4.59-5.78C8.23,12,17,14.17,13.89,8.22a28.11,28.11,0,0,0-2-3.2c-.19-.26-.38-.45-.56-.7a7.15,7.15,0,0,0-.6-.76C9.54,2.21,8.23.24,6.07.57ZM22.53,9.29c2-.33,3.93,1.41,4.69,2.36A6.09,6.09,0,0,1,28.42,14c.23,1,.27,2.55-.9,2.56s-1-1.48-1.28-2.4c-.79-2.55-2.94-2.6-4.17-3-1-.31-.92-1.66.46-1.88ZM20.67,4.64c1-.45,4.44.69,5.32,1.08a11.83,11.83,0,0,1,7,9.49c.07,1.06.24,2.46-.57,2.72-1.73.56-1.12-1.21-2-4.38-1.07-3.75-3.18-5.32-6.8-6.37-1.8-.52-3.45-.3-3.49-1.46a1,1,0,0,1,.61-1.08ZM19.37.06a16.29,16.29,0,0,1,4.36.35A18.1,18.1,0,0,1,32.87,5.8L34,7.12a17.53,17.53,0,0,1,3.56,8.56c.09.78.09,1.54.11,2.34s.08,1.62-.73,1.76-1.22-.34-1.28-1.17a23.14,23.14,0,0,0-1.14-6.1,14.49,14.49,0,0,0-3.66-6C28.09,4,24.67,2.7,20.68,2.11c-.65-.1-1.58,0-1.91-.51A1.05,1.05,0,0,1,19.37.06Z"/></g></g></svg>